ISO-10303-21;
HEADER;
FILE_DESCRIPTION(('ViewDefinition [Ifc4X3NotAssigned]'),'2;1');
FILE_NAME(
/* name */ 'C:\\Users\\Dimitrios.Papadopou\\OneDrive - ILF Group Holding GmbH\\ILF-SUI-17695-Tujetsch NalpSolar GP - General\\6_CAE\\51_AU\\12_Werkleitungen_2026-2027\\23_IFC\\PZ2\\NalpSolar_51_M_0465_A1_TB-2026-PZ2-HRB.ifc',
/* time_stamp */ '2026-05-07T09:53:57',
/* author */ ('Dimitrios.Papadopou'),
/* organization */ ('Unknown'),
/* preprocessor_version */ 'GeometryGymIFCcore v0.2.19.0 by Geometry Gym Pty Ltd built 2023-09-24T19:25:26',
/* originating_system */ 'Civil 3D 2024 IfcInfra Plugin v13.6.147.0',
/* authorization */ 'None'
);

FILE_SCHEMA (('IFC4X3_ADD2'));
ENDSEC;

DATA;
#1= IFCORGANIZATION($,'Autodesk',$,$,$);
#2= IFCAPPLICATION(#1,'Civil 3D 2024','Civil 3D','Civil 3D 2024 IfcInfra Plugin v13.6.147.0');
#3= IFCCARTESIANPOINT((0.0,0.0,0.0));
#4= IFCAXIS2PLACEMENT3D(#3,$,$);
#5= IFCLOCALPLACEMENT($,#20);
#6= IFCCARTESIANPOINT((0.0,0.0,0.0));
#7= IFCAXIS2PLACEMENT3D(#6,$,$);
#9= IFCROAD('3F3gQcElv3OftkzQC1QJMW',$,'UnknownName',$,$,#5,$,$,$,.NOTDEFINED.);
#12= IFCSIUNIT(*,.LENGTHUNIT.,$,.METRE.);
#13= IFCSIUNIT(*,.AREAUNIT.,$,.METRE.);
#14= IFCSIUNIT(*,.VOLUMEUNIT.,$,.METRE.);
#15= IFCSIUNIT(*,.PLANEANGLEUNIT.,$,.RADIAN.);
#16= IFCPROJECT('2lR1Cx2rb0_usOtyXgz_ak',$,'Unknown',$,$,$,$,(#30),#17);
#17= IFCUNITASSIGNMENT((#12,#13,#14,#15));
#18= IFCRELAGGREGATES('1VNCOU2CmRqfAZEpDXXw3b',$,$,$,#16,(#9));
#19= IFCCARTESIANPOINT((2701449.0,1165526.0,1943.0));
#20= IFCAXIS2PLACEMENT3D(#19,$,$);
#21= IFCCARTESIANPOINT((0.0,0.0,0.0));
#22= IFCAXIS2PLACEMENT3D(#21,$,$);
#23= IFCLOCALPLACEMENT(#5,#22);
#24= IFCCLASSIFICATION($,$,$,'Civil 3D',$,$,$);
#25= IFCRELASSOCIATESCLASSIFICATION('0xvtO8Whv40gnaSizSrWX$',$,$,$,(#16),#24);
#26= IFCCLASSIFICATIONREFERENCE($,$,'Civil 3D Styles',#24,$,$);
#27= IFCCLASSIFICATIONREFERENCE($,$,'Point Styles',#26,$,$);
#28= IFCCLASSIFICATIONREFERENCE($,$,'Standard',#27,$,$);
#29= IFCCARTESIANPOINT((0.0,0.0,0.0));
#30= IFCGEOMETRICREPRESENTATIONCONTEXT('3D','Model',3,0.0001,#32,#33);
#31= IFCCARTESIANPOINT((0.0,0.0,0.0));
#32= IFCAXIS2PLACEMENT3D(#31,$,$);
#33= IFCDIRECTION((0.0,1.0));
#34= IFCGEOMETRICREPRESENTATIONSUBCONTEXT('Body','Model',*,*,*,*,#30,$,.MODEL_VIEW.,$);
#35= IFCSHAPEREPRESENTATION(#34,'Body','Point',(#29));
#36= IFCPRODUCTDEFINITIONSHAPE($,$,(#35));
#37= IFCANNOTATION('2qs3Gyzh533v09rS0i9et1',$,'IFC Project Base Point 2lR1Cx2rb0_usOtyXgz_ak','IFC Project Base Point','CogoPoint',#23,#36,$);
#38= IFCRELCONTAINEDINSPATIALSTRUCTURE('1swhlP5DvCYZOVjsbWQnXu',$,$,' Container for Elements',(#37,#127,#161,#184,#205,#226,#255,#278,#301,#324),#9);
#39= IFCPROPERTYSINGLEVALUE('PointNumber',$,IFCIDENTIFIER('1'),$);
#40= IFCPROPERTYSET('0CofVT_iHFlhtvjqTM4Vzy',$,'C3D_Attributes',$,(#39));
#41= IFCRELDEFINESBYPROPERTIES('31pmaQco50HQGD3oIDDLYp',$,$,$,(#37),#40);
#42= IFCCOLOURRGB('210',1.0,0.0,1.0);
#43= IFCSURFACESTYLESHADING(#42,$);
#44= IFCSURFACESTYLE($,.BOTH.,(#43));
#45= IFCPRESENTATIONLAYERWITHSTYLE('All_Hilfe_000A_210',$,(#29),$,.U.,.U.,.U.,(#44));
#46= IFCSTYLEDITEM(#29,(#44),'All_Hilfe_000A_210');
#47= IFCPROPERTYSET('3ntXUL2bn38BiJ9NwOsHgb',$,'Properties',$,(#49,#50,#51,#52,#53,#54,#55,#56,#57,#58,#59,#60,#61,#62,#63,#64,#65,#66,#67,#68,#69,#70,#71,#72,#73,#74,#75,#76,#77,#78,#79,#80,#81,#82,#83,#84,#85,#86,#87,#88,#89,#90,#91,#92,#93,#94));
#48= IFCRELDEFINESBYPROPERTIES('0RJROLKyT3PgCD7viwPKg0',$,$,$,(#37),#47);
#49= IFCPROPERTYSINGLEVALUE('DescriptionFormat',$,IFCLABEL(''),$);
#50= IFCPROPERTYSINGLEVALUE('Easting',$,IFCREAL(2701449.0),$);
#51= IFCPROPERTYSINGLEVALUE('Elevation',$,IFCREAL(1943.0),$);
#52= IFCPROPERTYSINGLEVALUE('ElevationOverride',$,IFCREAL(1943.0),$);
#53= IFCPROPERTYSINGLEVALUE('FullDescription',$,IFCLABEL('IFC Project Base Point'),$);
#54= IFCPROPERTYSINGLEVALUE('FullDescriptionOverride',$,IFCLABEL('IFC Project Base Point'),$);
#55= IFCPROPERTYSINGLEVALUE('IsCheckedOut',$,IFCBOOLEAN(.F.),$);
#56= IFCPROPERTYSINGLEVALUE('IsLabelDragged',$,IFCBOOLEAN(.F.),$);
#57= IFCPROPERTYSINGLEVALUE('IsLabelPinned',$,IFCBOOLEAN(.F.),$);
#58= IFCPROPERTYSINGLEVALUE('IsLabelVisible',$,IFCBOOLEAN(.T.),$);
#59= IFCPROPERTYSINGLEVALUE('IsLocked',$,IFCBOOLEAN(.F.),$);
#60= IFCPROPERTYSINGLEVALUE('IsMovable',$,IFCBOOLEAN(.T.),$);
#61= IFCPROPERTYSINGLEVALUE('IsProjectPoint',$,IFCBOOLEAN(.F.),$);
#62= IFCPROPERTYSINGLEVALUE('IsSurveyPoint',$,IFCBOOLEAN(.F.),$);
#63= IFCPROPERTYSINGLEVALUE('LabelRotation',$,IFCREAL(0.0),$);
#64= IFCPROPERTYSINGLEVALUE('MarkerRotation',$,IFCREAL(0.0),$);
#65= IFCPROPERTYSINGLEVALUE('Northing',$,IFCREAL(1165526.0),$);
#66= IFCPROPERTYSINGLEVALUE('PointName',$,IFCLABEL('IFC Project Base Point 2lR1Cx2rb0_usOtyXgz_ak'),$);
#67= IFCPROPERTYSINGLEVALUE('PointNumber',$,IFCINTEGER(1),$);
#68= IFCPROPERTYSINGLEVALUE('RawDescription',$,IFCLABEL('IFC Project Base Point'),$);
#69= IFCPROPERTYSINGLEVALUE('RawDescriptionOverride',$,IFCLABEL('IFC Project Base Point'),$);
#70= IFCPROPERTYSINGLEVALUE('ScaleXY',$,IFCREAL(1.0),$);
#71= IFCPROPERTYSINGLEVALUE('ScaleZ',$,IFCREAL(1.0),$);
#72= IFCPROPERTYSINGLEVALUE('ShowToolTip',$,IFCBOOLEAN(.T.),$);
#73= IFCPROPERTYSINGLEVALUE('CloneMeForDragging',$,IFCBOOLEAN(.T.),$);
#74= IFCPROPERTYSINGLEVALUE('ForceAnnoAllVisible',$,IFCBOOLEAN(.T.),$);
#75= IFCPROPERTYSINGLEVALUE('HasSaveVersionOverride',$,IFCBOOLEAN(.F.),$);
#76= IFCPROPERTYSINGLEVALUE('IsCancelling',$,IFCBOOLEAN(.F.),$);
#77= IFCPROPERTYSINGLEVALUE('IsErased',$,IFCBOOLEAN(.F.),$);
#78= IFCPROPERTYSINGLEVALUE('IsEraseStatusToggled',$,IFCBOOLEAN(.F.),$);
#79= IFCPROPERTYSINGLEVALUE('IsModified',$,IFCBOOLEAN(.F.),$);
#80= IFCPROPERTYSINGLEVALUE('IsModifiedGraphics',$,IFCBOOLEAN(.F.),$);
#81= IFCPROPERTYSINGLEVALUE('IsModifiedXData',$,IFCBOOLEAN(.F.),$);
#82= IFCPROPERTYSINGLEVALUE('IsNewObject',$,IFCBOOLEAN(.F.),$);
#83= IFCPROPERTYSINGLEVALUE('IsNotifyEnabled',$,IFCBOOLEAN(.F.),$);
#84= IFCPROPERTYSINGLEVALUE('IsNotifying',$,IFCBOOLEAN(.F.),$);
#85= IFCPROPERTYSINGLEVALUE('IsObjectIdsInFlux',$,IFCBOOLEAN(.F.),$);
#86= IFCPROPERTYSINGLEVALUE('IsPersistent',$,IFCBOOLEAN(.T.),$);
#87= IFCPROPERTYSINGLEVALUE('IsReadEnabled',$,IFCBOOLEAN(.T.),$);
#88= IFCPROPERTYSINGLEVALUE('IsReallyClosing',$,IFCBOOLEAN(.F.),$);
#89= IFCPROPERTYSINGLEVALUE('IsTransactionResident',$,IFCBOOLEAN(.T.),$);
#90= IFCPROPERTYSINGLEVALUE('IsUndoing',$,IFCBOOLEAN(.F.),$);
#91= IFCPROPERTYSINGLEVALUE('IsWriteEnabled',$,IFCBOOLEAN(.T.),$);
#92= IFCPROPERTYSINGLEVALUE('Bounds',$,IFCLABEL('((2701445.46446609,1165518.25,1943),(2701514.51776695,1165532.75,1943))'),$);
#93= IFCPROPERTYSINGLEVALUE('AutoDelete',$,IFCBOOLEAN(.F.),$);
#94= IFCPROPERTYSINGLEVALUE('IsDisposed',$,IFCBOOLEAN(.F.),$);
#95= IFCPROPERTYSET('0bmpY5HULC0wjaybbNLnr3',$,'Misc',$,(#97,#98,#99,#100));
#96= IFCRELDEFINESBYPROPERTIES('0R55czDJ12H9zVRqcroTqs',$,$,$,(#37),#95);
#97= IFCPROPERTYSINGLEVALUE('BlockName',$,IFCLABEL('*Model_Space'),$);
#98= IFCPROPERTYSINGLEVALUE('ClassID',$,IFCLABEL('e9320128-0088-4186-8df9-3d5372b7dc57'),$);
#99= IFCPROPERTYSINGLEVALUE('HasFields',$,IFCBOOLEAN(.F.),$);
#100= IFCPROPERTYSINGLEVALUE('IsAProxy',$,IFCBOOLEAN(.F.),$);
#101= IFCPROPERTYSET('2$Yl$d$nHDUgVO7JY_4XNV',$,'3D Visualization',$,(#103,#104,#105));
#102= IFCRELDEFINESBYPROPERTIES('239wvizfbDrBluWj6LreI_',$,$,$,(#37),#101);
#103= IFCPROPERTYSINGLEVALUE('CastShadows',$,IFCBOOLEAN(.T.),$);
#104= IFCPROPERTYSINGLEVALUE('Material',$,IFCLABEL('ByLayer'),$);
#105= IFCPROPERTYSINGLEVALUE('ReceiveShadows',$,IFCBOOLEAN(.T.),$);
#106= IFCPROPERTYSET('3dd06CUAz9SRhFAQva2wad',$,'General',$,(#108,#109,#110,#111,#112,#113));
#107= IFCRELDEFINESBYPROPERTIES('1txUZUSkf0JxZlgF1mWyoG',$,$,$,(#37),#106);
#108= IFCPROPERTYSINGLEVALUE('ColorIndex',$,IFCINTEGER(256),$);
#109= IFCPROPERTYSINGLEVALUE('Layer',$,IFCLABEL('All_Hilfe_000A_210'),$);
#110= IFCPROPERTYSINGLEVALUE('Linetype',$,IFCLABEL('ByLayer'),$);
#111= IFCPROPERTYSINGLEVALUE('LinetypeScale',$,IFCREAL(1.0),$);
#112= IFCPROPERTYSINGLEVALUE('PlotStyleName',$,IFCLABEL('ByLayer'),$);
#113= IFCPROPERTYSINGLEVALUE('Visible',$,IFCBOOLEAN(.T.),$);
#114= IFCPROPERTYSET('1O2Y4T8XX9uuEL_4jdi9R9',$,'Geometry',$,(#116));
#115= IFCRELDEFINESBYPROPERTIES('3ysY1fcsH3VQuRJfon3DQ1',$,$,$,(#37),#114);
#116= IFCPROPERTYSINGLEVALUE('IsPlanar',$,IFCBOOLEAN(.F.),$);
#117= IFCRELASSOCIATESCLASSIFICATION('3kj9y3OwH2CQap2LrZjBUu',$,$,$,(#37),#28);
#118= IFCGROUP('0gpru8cDb2o8nnzfSoXYXu',$,'_Alle Punkte',$,$);
#119= IFCRELREFERENCEDINSPATIALSTRUCTURE('1oe3uLn9fEuuZOXPTwu8yZ',$,$,$,(#118),#9);
#120= IFCRELASSIGNSTOGROUP('31J93buv54jPKmewPQU5fS',$,$,$,(#37),$,#118);
#121= IFCGEOMETRICREPRESENTATIONSUBCONTEXT('Body','Model',*,*,*,*,#30,$,.MODEL_VIEW.,$);
#122= IFCCARTESIANPOINTLIST3D(((346.22316,528.12121,68.59503),(345.57563,527.35917,68.59503),(348.50929,526.17864,68.59503),(347.86176,525.41659,68.59503),(345.57563,527.35917,69.99503),(346.22316,528.12121,69.99503),(347.86176,525.41659,69.99503),(348.50929,526.17864,69.99503),(347.87894,525.20516,68.49503),(347.87894,525.20516,70.09503),(345.3642,527.34199,68.49503),(345.3642,527.34199,70.09503),(346.20598,528.33265,68.49503),(346.20598,528.33265,70.09503),(348.72072,526.19581,70.09503),(348.72072,526.19581,68.49503)),$);
#123= IFCTRIANGULATEDFACESET(#122,$,$,((1,2,3),(3,2,4),(2,1,5),(5,1,6),(4,2,7),(7,2,5),(3,4,8),(8,4,7),(1,3,6),(6,3,8),(6,8,5),(5,8,7),(9,10,11),(11,10,12),(11,12,13),(13,12,14),(12,10,14),(14,10,15),(13,14,16),(16,14,15),(16,15,9),(9,15,10),(11,13,9),(9,13,16)),$);
#124= IFCSHAPEREPRESENTATION(#121,'Body','Tessellation',(#123));
#125= IFCPRODUCTDEFINITIONSHAPE($,$,(#124));
#126= IFCLOCALPLACEMENT(#5,#22);
#127= IFCBUILTELEMENT('2uQRLC3m5BhwU67DIpBwn_',$,'Schacht_3D',$,$,#126,#125,'26CCE');
#128= IFCCOLOURRGB('140',0.0,0.749019607843137,1.0);
#129= IFCSURFACESTYLESHADING(#128,$);
#130= IFCSURFACESTYLE($,.BOTH.,(#129));
#131= IFCPRESENTATIONLAYERWITHSTYLE('Schacht_3D',$,(#123,#157,#180,#201),$,.U.,.U.,.U.,(#130));
#132= IFCSTYLEDITEM(#123,(#130),'Schacht_3D');
#133= IFCPROPERTYSET('3BGj4X1K99UP9gDz4d58Ol',$,'Properties',$,(#73,#74,#75,#76,#77,#78,#79,#80,#81,#82,#83,#84,#85,#86,#87,#88,#89,#90,#91,#93,#94,#135,#136,#137,#138,#139,#140,#141));
#134= IFCRELDEFINESBYPROPERTIES('0K7HIpmCDECRf74mfhmWaN',$,$,$,(#127),#133);
#135= IFCPROPERTYSINGLEVALUE('Area',$,IFCREAL(40.4999793217926),$);
#136= IFCPROPERTYSINGLEVALUE('IsNull',$,IFCBOOLEAN(.F.),$);
#137= IFCPROPERTYSINGLEVALUE('NumChanges',$,IFCINTEGER(54),$);
#138= IFCPROPERTYSINGLEVALUE('RecordHistory',$,IFCBOOLEAN(.F.),$);
#139= IFCPROPERTYSINGLEVALUE('ShowHistory',$,IFCBOOLEAN(.F.),$);
#140= IFCPROPERTYSINGLEVALUE('UsesGraphicsCache',$,IFCBOOLEAN(.T.),$);
#141= IFCPROPERTYSINGLEVALUE('Bounds',$,IFCLABEL('((2701794.2923457,1166051.02276733,2011.49502757185),(2701797.79257439,1166054.5150352,2013.09502757185))'),$);
#142= IFCPROPERTYSET('1IfClsOCL92BCR9wdkKUUI',$,'Misc',$,(#97,#99,#100,#144));
#143= IFCRELDEFINESBYPROPERTIES('30ZZNdbqHF$QE2d4UMp8gJ',$,$,$,(#127),#142);
#144= IFCPROPERTYSINGLEVALUE('ClassID',$,IFCLABEL('1dc8fd76-8eca-4f4c-b7d5-c66f43a68e17'),$);
#145= IFCPROPERTYSET('2VwbO4Nwz1$uPbOrhzJRUg',$,'3D Visualization',$,(#103,#104,#105));
#146= IFCRELDEFINESBYPROPERTIES('0YMK2oLHjFXwtC_2B$tIbS',$,$,$,(#127),#145);
#147= IFCPROPERTYSET('1oZyjV59z3SAAuH5dP28GQ',$,'General',$,(#108,#110,#111,#112,#113,#149));
#148= IFCRELDEFINESBYPROPERTIES('0EMKvwncX8_gQKuLTOFa$Y',$,$,$,(#127),#147);
#149= IFCPROPERTYSINGLEVALUE('Layer',$,IFCLABEL('Schacht_3D'),$);
#150= IFCPROPERTYSET('0ZL88XsUT6Chg9_z2Xofbz',$,'Geometry',$,(#116));
#151= IFCRELDEFINESBYPROPERTIES('2LVlxBltnEZP6IwW0uycpS',$,$,$,(#127),#150);
#152= IFCPROPERTYSET('0bRqXmIxz4yBPQPrGEbMK5',$,'01_Info',$,(#154,#155));
#153= IFCRELDEFINESBYPROPERTIES('1g25_CUvPCtfjQ9XsLzQIL',$,$,$,(#127),#152);
#154= IFCPROPERTYSINGLEVALUE('Name',$,IFCLABEL('Schacht C2'),$);
#155= IFCPROPERTYSINGLEVALUE('Typ',$,IFCLABEL('3 m x 1 m'),$);
#156= IFCCARTESIANPOINTLIST3D(((481.31022,360.35373,76.10243),(480.53635,359.72039,76.10243),(483.21026,358.03213,76.10243),(482.43639,357.39878,76.10243),(480.53635,359.72039,77.35243),(481.31022,360.35373,77.35243),(482.43639,357.39878,77.35243),(483.21026,358.03213,77.35243),(482.41531,357.1877,76.00243),(482.41531,357.1877,77.45243),(480.32527,359.74146,76.00243),(480.32527,359.74146,77.45243),(481.3313,360.56482,76.00243),(481.3313,360.56482,77.45243),(483.42134,358.01105,77.45243),(483.42134,358.01105,76.00243)),$);
#157= IFCTRIANGULATEDFACESET(#156,$,$,((1,2,3),(3,2,4),(2,1,5),(5,1,6),(4,2,7),(7,2,5),(3,4,8),(8,4,7),(1,3,6),(6,3,8),(6,8,5),(5,8,7),(9,10,11),(11,10,12),(11,12,13),(13,12,14),(12,10,14),(14,10,15),(13,14,16),(16,14,15),(16,15,9),(9,15,10),(11,13,9),(9,13,16)),$);
#158= IFCSHAPEREPRESENTATION(#121,'Body','Tessellation',(#157));
#159= IFCPRODUCTDEFINITIONSHAPE($,$,(#158));
#160= IFCLOCALPLACEMENT(#5,#22);
#161= IFCBUILTELEMENT('3HmU1P5n950xcc$6mFSNXN',$,'Schacht_3D',$,$,#160,#159,'26CD7');
#162= IFCSTYLEDITEM(#157,(#130),'Schacht_3D');
#163= IFCPROPERTYSET('1iFFgJNy90nOq3nIRPYYam',$,'Properties',$,(#73,#74,#75,#76,#77,#78,#79,#80,#81,#82,#83,#84,#85,#86,#87,#88,#89,#90,#91,#93,#94,#136,#138,#139,#140,#165,#166,#167));
#164= IFCRELDEFINESBYPROPERTIES('2d4jK9QMn4sRhGmVcAxc_C',$,$,$,(#161),#163);
#165= IFCPROPERTYSINGLEVALUE('Area',$,IFCREAL(37.9199804890496),$);
#166= IFCPROPERTYSINGLEVALUE('NumChanges',$,IFCINTEGER(1),$);
#167= IFCPROPERTYSINGLEVALUE('Bounds',$,IFCLABEL('((2701929.26741385,1165883.04083804,2019.00242749388),(2701932.4791968,1165886.71167999,2020.45242749388))'),$);
#168= IFCPROPERTYSET('2FI3XrGyj7CAbLZqgATTr0',$,'Misc',$,(#97,#99,#100,#144));
#169= IFCRELDEFINESBYPROPERTIES('0HTwQSh752CgZ1C8HegeWj',$,$,$,(#161),#168);
#170= IFCPROPERTYSET('1RVMSBQsz5zPOTstjhHI0y',$,'3D Visualization',$,(#103,#104,#105));
#171= IFCRELDEFINESBYPROPERTIES('1Ab3Fo8ZLCFOPTpfkyH6x3',$,$,$,(#161),#170);
#172= IFCPROPERTYSET('1LRPKg6GTDbxnjd$IF1UVn',$,'General',$,(#108,#110,#111,#112,#113,#149));
#173= IFCRELDEFINESBYPROPERTIES('18vzLiQ4PD7Rpvs8VtmHEJ',$,$,$,(#161),#172);
#174= IFCPROPERTYSET('0n1lDSmIn27AEC1$FvVWus',$,'Geometry',$,(#116));
#175= IFCRELDEFINESBYPROPERTIES('190Zmdi1D1EQYgr3Q4TKsZ',$,$,$,(#161),#174);
#176= IFCPROPERTYSET('15UsKaOR14pPg4T0813OPM',$,'01_Info',$,(#155,#178));
#177= IFCRELDEFINESBYPROPERTIES('3mqeOWbJ98xuis0KxOI4Yy',$,$,$,(#161),#176);
#178= IFCPROPERTYSINGLEVALUE('Name',$,IFCLABEL('Schacht C5'),$);
#179= IFCCARTESIANPOINTLIST3D(((391.02563,482.16482,69.06901),(390.25936,481.5223,69.06901),(392.95319,479.86601,69.06901),(392.18692,479.22349,69.06901),(390.25936,481.5223,70.46901),(391.02563,482.16482,70.46901),(392.18692,479.22349,70.46901),(392.95319,479.86601,70.46901),(392.16836,479.01218,68.96901),(392.16836,479.01218,70.56901),(390.04804,481.54086,68.96901),(390.04804,481.54086,70.56901),(391.04419,482.37614,68.96901),(391.04419,482.37614,70.56901),(393.16451,479.84745,70.56901),(393.16451,479.84745,68.96901)),$);
#180= IFCTRIANGULATEDFACESET(#179,$,$,((1,2,3),(3,2,4),(2,1,5),(5,1,6),(4,2,7),(7,2,5),(3,4,8),(8,4,7),(1,3,6),(6,3,8),(6,8,5),(5,8,7),(9,10,11),(11,10,12),(11,12,13),(13,12,14),(12,10,14),(14,10,15),(13,14,16),(16,14,15),(16,15,9),(9,15,10),(11,13,9),(9,13,16)),$);
#181= IFCSHAPEREPRESENTATION(#121,'Body','Tessellation',(#180));
#182= IFCPRODUCTDEFINITIONSHAPE($,$,(#181));
#183= IFCLOCALPLACEMENT(#5,#22);
#184= IFCBUILTELEMENT('3M$iJPK4vBCPzefFvzPxLu',$,'Schacht_3D',$,$,#183,#182,'26CDB');
#185= IFCSTYLEDITEM(#180,(#130),'Schacht_3D');
#186= IFCPROPERTYSET('1lCmGsXazAqAyWTpXWYI6l',$,'Properties',$,(#73,#74,#75,#76,#77,#78,#79,#80,#81,#82,#83,#84,#85,#86,#87,#88,#89,#90,#91,#93,#94,#135,#136,#138,#139,#140,#166,#188));
#187= IFCRELDEFINESBYPROPERTIES('1CWo5BYTL3ChqSoiSNB5_0',$,$,$,(#184),#186);
#188= IFCPROPERTYSINGLEVALUE('Bounds',$,IFCLABEL('((2701838.98920114,1166004.86280723,2011.9690094146),(2701842.22334866,1166008.52550541,2013.5690094146))'),$);
#189= IFCPROPERTYSET('17QwLWF0bBOhdc6m6ZxeCM',$,'Misc',$,(#97,#99,#100,#144));
#190= IFCRELDEFINESBYPROPERTIES('1H2_JCVmz4ZRMe_SJV0XnX',$,$,$,(#184),#189);
#191= IFCPROPERTYSET('1fC0c10Jr7Fw1VWUsitnZF',$,'3D Visualization',$,(#103,#104,#105));
#192= IFCRELDEFINESBYPROPERTIES('2pCVuPBKr3axOSH7VYWUDP',$,$,$,(#184),#191);
#193= IFCPROPERTYSET('0CTr8yo5v9B9Yob4cf0QWH',$,'General',$,(#108,#110,#111,#112,#113,#149));
#194= IFCRELDEFINESBYPROPERTIES('0WSxyG6VL65x$04H3ddKi2',$,$,$,(#184),#193);
#195= IFCPROPERTYSET('26StAjcCPFlv0HjBzdXMPh',$,'Geometry',$,(#116));
#196= IFCRELDEFINESBYPROPERTIES('1K1hYCnw13NeNdsCAhThQl',$,$,$,(#184),#195);
#197= IFCPROPERTYSET('3RVpdQZ5DCvgZWO3wXNHwe',$,'01_Info',$,(#155,#199));
#198= IFCRELDEFINESBYPROPERTIES('292WJChcLDAAI0VNeFrSO2',$,$,$,(#184),#197);
#199= IFCPROPERTYSINGLEVALUE('Name',$,IFCLABEL('Schacht C3'),$);
#200= IFCCARTESIANPOINTLIST3D(((427.43111,412.87765,69.3276),(426.65539,412.24658,69.3276),(429.32432,410.55048,69.3276),(428.5486,409.91941,69.3276),(426.65539,412.24658,70.7276),(427.43111,412.87765,70.7276),(428.5486,409.91941,70.7276),(429.32432,410.55048,70.7276),(428.5269,409.70839,69.2276),(428.5269,409.70839,70.8276),(426.44437,412.26828,69.2276),(426.44437,412.26828,70.8276),(427.45281,413.08867,69.2276),(427.45281,413.08867,70.8276),(429.53534,410.52878,70.8276),(429.53534,410.52878,69.2276)),$);
#201= IFCTRIANGULATEDFACESET(#200,$,$,((1,2,3),(3,2,4),(2,1,5),(5,1,6),(4,2,7),(7,2,5),(3,4,8),(8,4,7),(1,3,6),(6,3,8),(6,8,5),(5,8,7),(9,10,11),(11,10,12),(11,12,13),(13,12,14),(12,10,14),(14,10,15),(13,14,16),(16,14,15),(16,15,9),(9,15,10),(11,13,9),(9,13,16)),$);
#202= IFCSHAPEREPRESENTATION(#121,'Body','Tessellation',(#201));
#203= IFCPRODUCTDEFINITIONSHAPE($,$,(#202));
#204= IFCLOCALPLACEMENT(#5,#22);
#205= IFCBUILTELEMENT('1ZaJSMWDn4cP_4QI9QCJPn',$,'Schacht_3D',$,$,#204,#203,'26CDF');
#206= IFCSTYLEDITEM(#201,(#130),'Schacht_3D');
#207= IFCPROPERTYSET('0hfhSNfPP20wn_bxIrIA23',$,'Properties',$,(#73,#74,#75,#76,#77,#78,#79,#80,#81,#82,#83,#84,#85,#86,#87,#88,#89,#90,#91,#93,#94,#135,#136,#138,#139,#140,#166,#209));
#208= IFCRELDEFINESBYPROPERTIES('0qVHClyX19CelDJmmfjKAa',$,$,$,(#205),#207);
#209= IFCPROPERTYSINGLEVALUE('Bounds',$,IFCLABEL('((2701875.38675702,1165935.56214557,2012.22759990984),(2701878.59295485,1165939.23491571,2013.82759990984))'),$);
#210= IFCPROPERTYSET('3tA_hHdxT2vgxsehHSuw4v',$,'Misc',$,(#97,#99,#100,#144));
#211= IFCRELDEFINESBYPROPERTIES('0os7uoMUz5dB0nhnasPtGi',$,$,$,(#205),#210);
#212= IFCPROPERTYSET('3zBdhwAN9AZxcFL6YK8imK',$,'3D Visualization',$,(#103,#104,#105));
#213= IFCRELDEFINESBYPROPERTIES('2mUtk3KxL3R8DtX2x93s_s',$,$,$,(#205),#212);
#214= IFCPROPERTYSET('3OojOMIArEL85X9hQn4HOp',$,'General',$,(#108,#110,#111,#112,#113,#149));
#215= IFCRELDEFINESBYPROPERTIES('0XbuxohvPFJATFZ1ZAIg9E',$,$,$,(#205),#214);
#216= IFCPROPERTYSET('3jhFYauQjBDgZOC90XWCYQ',$,'Geometry',$,(#116));
#217= IFCRELDEFINESBYPROPERTIES('1iCU9hgIHEMOHlfgktiQ9k',$,$,$,(#205),#216);
#218= IFCPROPERTYSET('3I1yPngQn8uffqCegSaMmp',$,'01_Info',$,(#155,#220));
#219= IFCRELDEFINESBYPROPERTIES('1exRygn5DC4A_Hz2tI35_1',$,$,$,(#205),#218);
#220= IFCPROPERTYSINGLEVALUE('Name',$,IFCLABEL('Schacht C4'),$);
#221= IFCCARTESIANPOINTLIST3D(((331.3549,540.9366,66.60269),(331.25389,540.90007,67.29472),(346.24898,528.2808,68.70437),(346.13208,528.25778,69.39415),(330.64757,540.10701,66.45513),(345.55499,527.43988,68.55869),(330.54657,540.07048,67.14716),(345.43809,527.41685,69.24847),(330.74133,541.35698,67.26485),(330.83045,541.4041,66.57213),(330.08589,540.6077,66.4224),(329.99677,540.56058,67.11512),(329.99311,542.10955,67.21206),(330.10047,542.13832,66.52063),(329.30791,541.3902,66.36751),(329.20055,541.36142,67.05895),(329.30325,542.91301,67.10626),(329.43327,542.91539,66.4183),(328.59346,542.2223,66.25794),(328.46343,542.21992,66.94589),(328.67422,543.76417,66.96844),(328.81955,543.74585,66.28384),(327.93588,543.11209,66.11387),(327.79056,543.13042,66.79847),(328.26155,544.62918,66.12342),(328.10974,544.65775,66.80616),(327.33695,544.06022,65.94168),(327.18515,544.0888,66.62442),(327.61258,545.589,66.65602),(327.7656,545.55814,65.97364),(326.80369,545.05909,65.78063),(326.65067,545.08995,66.46301),(327.18469,546.55407,66.51297),(327.33923,546.51978,65.8311),(326.34522,546.09312,65.62737),(326.19068,546.1274,66.30923),(326.97662,547.53103,65.69558),(326.82984,547.54365,66.38036),(325.95291,547.18716,65.48075),(325.80614,547.19978,66.16552),(326.54814,548.55652,66.33936),(326.68961,548.56297,65.65382),(325.64235,548.30379,65.43555),(325.50089,548.29734,66.1211),(326.48159,549.59854,65.61301),(326.34059,549.58979,66.29864),(325.41805,549.42044,65.39155),(325.27704,549.41169,66.07718),(326.20897,550.63551,66.29613),(326.34976,550.64594,65.61049),(325.27591,550.54979,65.38884),(325.13512,550.53935,66.07447),(326.15391,551.69005,66.29226),(326.29526,551.68973,65.60666),(325.21731,551.67205,65.38472),(325.07596,551.67236,66.07032),(326.31717,552.73939,65.60278),(326.17592,552.74489,66.28836),(325.2409,552.80206,65.38055),(325.09965,552.80756,66.06612),(326.2748,553.79483,66.30028),(326.41585,553.78717,65.61468),(325.3472,553.93083,65.39336),(325.20616,553.93849,66.07896),(326.45038,554.83682,66.32144),(326.58891,554.81425,65.63553),(325.53309,555.034,65.41576),(325.39456,555.05657,66.10167),(326.83632,555.82537,65.63253),(326.70155,555.86333,66.31839),(325.79878,556.11987,65.41254),(325.66401,556.15782,66.0984),(327.16086,556.82816,65.63641),(327.02619,556.86641,66.32227),(326.14855,557.2006,65.41672),(326.01387,557.23884,66.10258),(327.42381,557.84475,66.34973),(327.55424,557.79607,65.66357),(326.57145,558.24113,65.44592),(326.44102,558.28982,66.13207),(327.89281,558.79359,66.35022),(328.01165,558.72145,65.66405),(327.0615,559.23257,65.44643),(326.94267,559.30471,66.1326),(328.42938,559.70497,66.32831),(328.53763,559.61485,65.64257),(327.62571,560.19089,65.42339),(327.51746,560.28101,66.10912),(329.03082,560.57446,66.29583),(329.12862,560.46925,65.61066),(328.25996,561.10783,65.38914),(328.16216,561.21305,66.07431),(329.70075,561.40601,66.24841),(329.77702,561.27407,65.56477),(328.94277,561.95537,65.34081),(328.8665,562.08731,66.02446),(330.39164,561.97059,65.46542),(330.32669,562.11536,66.14724),(329.54129,562.63363,65.24407),(329.47633,562.7784,65.92589),(330.94722,562.94121,66.04213),(331.01273,562.79718,65.36022),(330.10941,563.38974,65.14784),(330.0439,563.53377,65.82975),(331.50011,563.81627,65.90064),(331.55972,563.66289,65.22024),(330.60708,564.17738,65.02048),(330.54747,564.33076,65.70088),(332.04234,564.58403,65.04748),(331.97906,564.73039,65.72919),(331.04972,565.02222,64.86203),(330.98644,565.16858,65.54375),(332.45237,565.54918,64.89822),(332.38208,565.67906,65.58249),(331.42705,565.91041,64.72468),(331.35677,566.04029,65.40894),(332.70787,566.65937,65.43793),(332.77811,566.52936,64.75368),(331.72498,566.80689,64.59248),(331.65474,566.93689,65.27672),(333.02299,567.5302,64.58041),(332.95338,567.6628,65.26421),(331.94889,567.72203,64.43404),(331.87928,567.85463,65.11784),(333.19031,568.57318,64.39942),(333.11655,568.67986,65.08771),(332.10318,568.68376,64.26715),(332.02941,568.79044,64.95545),(333.1949,569.67992,64.9762),(333.26941,569.58266,64.28685),(332.18005,569.66491,64.15774),(332.10555,569.76218,64.84709),(333.30039,570.6955,64.82269),(333.37272,570.57733,64.13651),(332.27783,570.60628,64.01546),(332.2055,570.72444,64.70164),(333.28496,571.79972,64.61975),(333.35753,571.66487,63.93663),(332.26596,571.4563,63.85923),(332.19339,571.59116,64.54235),(332.93306,572.88145,63.63171),(332.86769,572.99568,64.32),(331.92968,572.42013,63.61766),(331.86431,572.53436,64.30595),(332.27869,574.02492,64.14997),(332.32803,573.93869,63.45705),(331.37331,573.39233,63.45705),(331.32397,573.47856,64.14997)),$);
#222= IFCTRIANGULATEDFACESET(#221,$,$,((1,2,3),(3,2,4),(5,1,6),(6,1,3),(5,6,7),(7,6,8),(7,8,2),(2,8,4),(9,2,10),(10,2,1),(10,1,11),(11,1,5),(12,11,7),(7,11,5),(9,12,2),(2,12,7),(13,9,14),(14,9,10),(14,10,15),(15,10,11),(16,15,12),(12,15,11),(16,12,13),(13,12,9),(17,13,18),(18,13,14),(18,14,19),(19,14,15),(20,19,16),(16,19,15),(20,16,17),(17,16,13),(21,17,22),(22,17,18),(22,18,23),(23,18,19),(24,23,20),(20,23,19),(24,20,21),(21,20,17),(25,26,22),(22,26,21),(27,25,23),(23,25,22),(27,23,28),(28,23,24),(28,24,26),(26,24,21),(29,26,30),(30,26,25),(31,30,27),(27,30,25),(32,31,28),(28,31,27),(32,28,29),(29,28,26),(33,29,34),(34,29,30),(35,34,31),(31,34,30),(36,35,32),(32,35,31),(36,32,33),(33,32,29),(37,38,34),(34,38,33),(39,37,35),(35,37,34),(39,35,40),(40,35,36),(40,36,38),(38,36,33),(41,38,42),(42,38,37),(42,37,43),(43,37,39),(44,43,40),(40,43,39),(41,44,38),(38,44,40),(45,46,42),(42,46,41),(47,45,43),(43,45,42),(47,43,48),(48,43,44),(48,44,46),(46,44,41),(49,46,50),(50,46,45),(50,45,51),(51,45,47),(52,51,48),(48,51,47),(49,52,46),(46,52,48),(53,49,54),(54,49,50),(54,50,55),(55,50,51),(56,55,52),(52,55,51),(53,56,49),(49,56,52),(57,58,54),(54,58,53),(59,57,55),(55,57,54),(59,55,60),(60,55,56),(60,56,58),(58,56,53),(61,58,62),(62,58,57),(62,57,63),(63,57,59),(64,63,60),(60,63,59),(61,64,58),(58,64,60),(65,61,66),(66,61,62),(66,62,67),(67,62,63),(68,67,64),(64,67,63),(65,68,61),(61,68,64),(69,70,66),(66,70,65),(71,69,67),(67,69,66),(71,67,72),(72,67,68),(72,68,70),(70,68,65),(73,74,69),(69,74,70),(75,73,71),(71,73,69),(75,71,76),(76,71,72),(76,72,74),(74,72,70),(77,74,78),(78,74,73),(78,73,79),(79,73,75),(80,79,76),(76,79,75),(77,80,74),(74,80,76),(81,77,82),(82,77,78),(82,78,83),(83,78,79),(84,83,80),(80,83,79),(81,84,77),(77,84,80),(85,81,86),(86,81,82),(86,82,87),(87,82,83),(88,87,84),(84,87,83),(88,84,85),(85,84,81),(89,85,90),(90,85,86),(90,86,91),(91,86,87),(92,91,88),(88,91,87),(89,92,85),(85,92,88),(93,89,94),(94,89,90),(94,90,95),(95,90,91),(96,95,92),(92,95,91),(93,96,89),(89,96,92),(97,98,94),(94,98,93),(97,94,99),(99,94,95),(99,95,100),(100,95,96),(98,100,93),(93,100,96),(101,98,102),(102,98,97),(103,102,99),(99,102,97),(104,103,100),(100,103,99),(104,100,101),(101,100,98),(105,101,106),(106,101,102),(107,106,103),(103,106,102),(108,107,104),(104,107,103),(108,104,105),(105,104,101),(109,110,106),(106,110,105),(111,109,107),(107,109,106),(111,107,112),(112,107,108),(112,108,110),(110,108,105),(113,114,109),(109,114,110),(115,113,111),(111,113,109),(115,111,116),(116,111,112),(116,112,114),(114,112,110),(117,114,118),(118,114,113),(119,118,115),(115,118,113),(120,119,116),(116,119,115),(120,116,117),(117,116,114),(121,122,118),(118,122,117),(123,121,119),(119,121,118),(123,119,124),(124,119,120),(124,120,122),(122,120,117),(125,126,121),(121,126,122),(127,125,123),(123,125,121),(127,123,128),(128,123,124),(128,124,126),(126,124,122),(129,126,130),(130,126,125),(131,130,127),(127,130,125),(132,131,128),(128,131,127),(132,128,129),(129,128,126),(133,129,134),(134,129,130),(134,130,135),(135,130,131),(136,135,132),(132,135,131),(133,136,129),(129,136,132),(137,133,138),(138,133,134),(138,134,139),(139,134,135),(140,139,136),(136,139,135),(137,140,133),(133,140,136),(141,142,138),(138,142,137),(143,141,139),(139,141,138),(143,139,144),(144,139,140),(144,140,142),(142,140,137),(145,142,146),(146,142,141),(147,146,143),(143,146,141),(148,147,144),(144,147,143),(148,144,145),(145,144,142),(4,8,3),(3,8,6),(148,145,147),(147,145,146)),$);
#223= IFCSHAPEREPRESENTATION(#121,'Body','Tessellation',(#222));
#224= IFCPRODUCTDEFINITIONSHAPE($,$,(#223));
#225= IFCLOCALPLACEMENT(#5,#22);
#226= IFCBUILTELEMENT('0B4bp$wzv1CP8eygOXolrH',$,'HRB_VK',$,$,#225,#224,'277D4');
#227= IFCCOLOURRGB('10',1.0,0.0,0.0);
#228= IFCSURFACESTYLESHADING(#227,$);
#229= IFCSURFACESTYLE($,.BOTH.,(#228));
#230= IFCPRESENTATIONLAYERWITHSTYLE('HRB_VK',$,(#222,#251,#274,#297,#320),$,.U.,.U.,.U.,(#229));
#231= IFCSTYLEDITEM(#222,(#229),'HRB_VK');
#232= IFCPROPERTYSET('21WzIqnRrFIffi1AXZFdNN',$,'Properties',$,(#73,#74,#75,#76,#77,#78,#79,#80,#81,#82,#83,#84,#85,#86,#87,#88,#89,#90,#91,#93,#94,#136,#138,#139,#140,#234,#235,#236));
#233= IFCRELDEFINESBYPROPERTIES('1dD7bc1Zv1_O5dOHYjITN5',$,$,$,(#226),#232);
#234= IFCPROPERTYSINGLEVALUE('Area',$,IFCREAL(205.324632917567),$);
#235= IFCPROPERTYSINGLEVALUE('NumChanges',$,IFCINTEGER(2),$);
#236= IFCPROPERTYSINGLEVALUE('Bounds',$,IFCLABEL('((2701774.0759588,1166053.41685452,2006.45705300987),(2701795.24898156,1166100.02492264,2012.39415236638))'),$);
#237= IFCPROPERTYSET('0rH6DIP71B3uVZ6nFrvnWB',$,'Misc',$,(#97,#99,#100,#144));
#238= IFCRELDEFINESBYPROPERTIES('3WaqTASYL3NeSXm2mIoOA3',$,$,$,(#226),#237);
#239= IFCPROPERTYSET('2uhTx2DY9E0w_sx8XZ4cFg',$,'3D Visualization',$,(#103,#104,#105));
#240= IFCRELDEFINESBYPROPERTIES('2yFhXHX411duOnepQFX_hF',$,$,$,(#226),#239);
#241= IFCPROPERTYSET('0DL0PAWSL3ff0dUq5daXxc',$,'General',$,(#108,#110,#111,#112,#113,#243));
#242= IFCRELDEFINESBYPROPERTIES('2FMOSv5Hb4aftHfFlh1ypc',$,$,$,(#226),#241);
#243= IFCPROPERTYSINGLEVALUE('Layer',$,IFCLABEL('HRB_VK'),$);
#244= IFCPROPERTYSET('1EPLKOx3z2axCB9IqYZE4S',$,'Geometry',$,(#116));
#245= IFCRELDEFINESBYPROPERTIES('0ATwAqyfLE2vVlFIyB7K49',$,$,$,(#226),#244);
#246= IFCPROPERTYSET('0q69A9qqLBjP8iSFXsEm1O',$,'01_Info',$,(#248,#249));
#247= IFCRELDEFINESBYPROPERTIES('1BUctOVSv5vAHwlfHICRoy',$,$,$,(#226),#246);
#248= IFCPROPERTYSINGLEVALUE('Name',$,IFCLABEL('HRB C1-C2'),$);
#249= IFCPROPERTYSINGLEVALUE('Typ',$,IFCLABEL('21 x KSR DN120/132 + 1 x KSR DN60/72'),$);
#250= IFCCARTESIANPOINTLIST3D(((390.53128,482.5025,69.89117),(390.80806,482.19061,69.92504),(390.55031,482.47153,69.1918),(390.84094,482.14403,69.22736),(390.03097,482.00218,69.19867),(390.31705,481.67981,69.23367),(390.01195,482.03315,69.89804),(390.28418,481.72639,69.93135),(388.86656,484.3078,69.83947),(388.87298,484.29049,69.13971),(388.36216,483.81191,69.14684),(388.35574,483.82921,69.8466),(354.6547,520.2033,67.772),(354.65862,520.20975,68.47218),(354.1488,519.71955,67.77933),(354.15273,519.726,68.4795),(354.27943,520.60484,68.48422),(354.24538,520.62979,67.78501),(353.74549,520.13977,67.79214),(353.77955,520.11483,68.49136),(352.54193,522.34438,68.72343),(352.49724,522.37997,68.02568),(352.0104,521.8769,68.03102),(352.05509,521.8413,68.72877),(350.68644,524.07818,68.18881),(350.74697,524.02773,68.88513),(350.21622,523.55952,68.19265),(350.27675,523.50907,68.88898),(348.80514,525.73041,68.59166),(348.90019,525.64964,69.2806),(348.34766,525.20056,68.59278),(348.44271,525.11979,69.28171),(348.52647,525.9672,69.37933),(348.42119,526.05666,68.6931),(347.96792,525.52323,68.6931),(348.0732,525.43377,69.37933)),$);
#251= IFCTRIANGULATEDFACESET(#250,$,$,((1,2,3),(3,2,4),(5,3,6),(6,3,4),(7,5,8),(8,5,6),(7,8,1),(1,8,2),(9,1,10),(10,1,3),(10,3,11),(11,3,5),(12,11,7),(7,11,5),(9,12,1),(1,12,7),(13,14,10),(10,14,9),(13,10,15),(15,10,11),(15,11,16),(16,11,12),(14,16,9),(9,16,12),(17,14,18),(18,14,13),(18,13,19),(19,13,15),(20,19,16),(16,19,15),(17,20,14),(14,20,16),(21,17,22),(22,17,18),(22,18,23),(23,18,19),(24,23,20),(20,23,19),(21,24,17),(17,24,20),(25,26,22),(22,26,21),(25,22,27),(27,22,23),(27,23,28),(28,23,24),(26,28,21),(21,28,24),(29,30,25),(25,30,26),(29,25,31),(31,25,27),(31,27,32),(32,27,28),(30,32,26),(26,32,28),(33,30,34),(34,30,29),(35,34,31),(31,34,29),(36,35,32),(32,35,31),(36,32,33),(33,32,30),(2,8,4),(4,8,6),(33,34,36),(36,34,35)),$);
#252= IFCSHAPEREPRESENTATION(#121,'Body','Tessellation',(#251));
#253= IFCPRODUCTDEFINITIONSHAPE($,$,(#252));
#254= IFCLOCALPLACEMENT(#5,#22);
#255= IFCBUILTELEMENT('1GW67NhSb1De_nATuMjvNr',$,'HRB_VK',$,$,#254,#253,'277F0');
#256= IFCSTYLEDITEM(#251,(#229),'HRB_VK');
#257= IFCPROPERTYSET('3EmXQGZ2r7ZhTmRBc2X7fX',$,'Properties',$,(#73,#74,#75,#76,#77,#78,#79,#80,#81,#82,#83,#84,#85,#86,#87,#88,#89,#90,#91,#93,#94,#136,#138,#139,#140,#235,#259,#260));
#258= IFCRELDEFINESBYPROPERTIES('1_LhS7yBL7zQlyFXv8rftf',$,$,$,(#255),#257);
#259= IFCPROPERTYSINGLEVALUE('Area',$,IFCREAL(171.793448492039),$);
#260= IFCPROPERTYSINGLEVALUE('Bounds',$,IFCLABEL('((2701796.96792308,1166007.67980558,2010.77200452557),(2701839.84093725,1166052.05665762,2012.93134667654))'),$);
#261= IFCPROPERTYSET('2n6zfyU8PCcOJvVUWVmgMr',$,'Misc',$,(#97,#99,#100,#144));
#262= IFCRELDEFINESBYPROPERTIES('1w40Ng9MXEaPc0XWLUEup_',$,$,$,(#255),#261);
#263= IFCPROPERTYSET('0fhmN03A58yfR3pk3Q2XTx',$,'3D Visualization',$,(#103,#104,#105));
#264= IFCRELDEFINESBYPROPERTIES('1yi1KC1HD6PuqCEwhwcBRm',$,$,$,(#255),#263);
#265= IFCPROPERTYSET('34pEOaygzF9vFy8tXSEQ16',$,'General',$,(#108,#110,#111,#112,#113,#243));
#266= IFCRELDEFINESBYPROPERTIES('2uzOsCL$D5twFP2srX19rt',$,$,$,(#255),#265);
#267= IFCPROPERTYSET('3n3UiCmSn0oeCGEy1bwlVW',$,'Geometry',$,(#116));
#268= IFCRELDEFINESBYPROPERTIES('0rDSlC6h59cuygu9luCLtE',$,$,$,(#255),#267);
#269= IFCPROPERTYSET('1fOHAef$b7jg7snaJRpT2F',$,'01_Info',$,(#271,#272));
#270= IFCRELDEFINESBYPROPERTIES('0CStLjVa19WxLYYfvJLk8r',$,$,$,(#255),#269);
#271= IFCPROPERTYSINGLEVALUE('Name',$,IFCLABEL('HRB C2-C3'),$);
#272= IFCPROPERTYSINGLEVALUE('Typ',$,IFCLABEL('15 x KSR DN120/132 + 1 x KSR DN60/72'),$);
#273= IFCCARTESIANPOINTLIST3D(((350.26353,523.32372,68.72975),(352.36791,522.22582,68.67688),(350.26314,523.32745,68.12966),(352.35751,522.23477,68.07704),(350.11423,523.06677,68.12835),(352.21871,521.96882,68.07547),(350.11462,523.06303,68.72844),(352.22911,521.95986,68.67532),(348.32434,524.53507,68.09544),(348.3201,524.53422,68.69546),(348.14577,524.29286,68.09361),(348.14154,524.29201,68.69362),(344.92664,527.4766,68.11941),(344.93271,527.46683,68.71935),(344.70718,527.2698,68.11786),(344.71325,527.26003,68.7178),(342.6501,530.4425,68.83958),(342.63929,530.45845,68.23989),(342.40125,530.27587,68.23933),(342.41205,530.25992,68.83902)),$);
#274= IFCTRIANGULATEDFACESET(#273,$,$,((1,2,3),(3,2,4),(5,3,6),(6,3,4),(7,5,8),(8,5,6),(7,8,1),(1,8,2),(9,10,3),(3,10,1),(11,9,5),(5,9,3),(11,5,12),(12,5,7),(12,7,10),(10,7,1),(13,14,9),(9,14,10),(15,13,11),(11,13,9),(15,11,16),(16,11,12),(16,12,14),(14,12,10),(17,14,18),(18,14,13),(18,13,19),(19,13,15),(20,19,16),(16,19,15),(17,20,14),(14,20,16),(8,6,2),(2,6,4),(20,17,19),(19,17,18)),$);
#275= IFCSHAPEREPRESENTATION(#121,'Body','Tessellation',(#274));
#276= IFCPRODUCTDEFINITIONSHAPE($,$,(#275));
#277= IFCLOCALPLACEMENT(#5,#22);
#278= IFCBUILTELEMENT('3kJ2mvVYb8R9WbxsSCnB1L',$,'HRB_VK',$,$,#277,#276,'277FD');
#279= IFCSTYLEDITEM(#274,(#229),'HRB_VK');
#280= IFCPROPERTYSET('0UrdGMw2H3Aelh_sBLm9Ra',$,'Properties',$,(#73,#74,#75,#76,#77,#78,#79,#80,#81,#82,#83,#84,#85,#86,#87,#88,#89,#90,#91,#93,#94,#136,#138,#139,#140,#235,#282,#283));
#281= IFCRELDEFINESBYPROPERTIES('0w5kNgJI5CwAfnjn2jcMD4',$,$,$,(#278),#280);
#282= IFCPROPERTYSINGLEVALUE('Area',$,IFCREAL(23.6963101474409),$);
#283= IFCPROPERTYSINGLEVALUE('Bounds',$,IFCLABEL('((2701791.40125042,1166047.95986153,2011.07547405692),(2701801.36790637,1166056.45844703,2011.83958421415))'),$);
#284= IFCPROPERTYSET('0fJMshAIz4YOstpG4posXx',$,'Misc',$,(#97,#99,#100,#144));
#285= IFCRELDEFINESBYPROPERTIES('2QjzQCDfD3j9zgGO5coQWL',$,$,$,(#278),#284);
#286= IFCPROPERTYSET('0kr2luktP4wgnRSw7a5aXM',$,'3D Visualization',$,(#103,#104,#105));
#287= IFCRELDEFINESBYPROPERTIES('3J4iHfIerCXPxO5EdiDt4q',$,$,$,(#278),#286);
#288= IFCPROPERTYSET('1glFmFof1ELvGFbplQ$V1q',$,'General',$,(#108,#110,#111,#112,#113,#243));
#289= IFCRELDEFINESBYPROPERTIES('2$2cbtOej6URI3ecuJyzwW',$,$,$,(#278),#288);
#290= IFCPROPERTYSET('0DesrCkbbAkvtdx1dt9xQf',$,'Geometry',$,(#116));
#291= IFCRELDEFINESBYPROPERTIES('21xqhUm_rEsg1lFuVy_j8m',$,$,$,(#278),#290);
#292= IFCPROPERTYSET('24$uy6dIL4shmoiwhHN8uf',$,'01_Info',$,(#294,#295));
#293= IFCRELDEFINESBYPROPERTIES('3vLr$a3UH7bQNRkdfc$Jum',$,$,$,(#278),#292);
#294= IFCPROPERTYSINGLEVALUE('Name',$,IFCLABEL('HRB '),$);
#295= IFCPROPERTYSINGLEVALUE('Typ',$,IFCLABEL('KSR DN 120/132'),$);
#296= IFCCARTESIANPOINTLIST3D(((425.93108,414.57069,69.67835),(425.93999,414.55878,70.17815),(427.21992,412.90014,69.63712),(427.22571,412.89227,70.13703),(425.37158,414.14995,69.6782),(426.66569,412.47256,69.63681),(425.38048,414.13804,70.17801),(426.67147,412.46468,70.13671),(424.2736,416.83264,70.29081),(424.26493,416.84423,69.79099),(423.69447,416.43843,69.79158),(423.70314,416.42684,70.2914),(422.67254,419.15219,70.34137),(422.66776,419.15815,69.84143),(422.08605,418.76864,69.84238),(422.09083,418.76268,70.34232),(421.13773,421.51609,70.37658),(421.13547,421.51816,69.87658),(420.54298,421.14527,69.87777),(420.54523,421.1432,70.37778),(419.67038,423.92244,70.37469),(419.67487,423.91345,69.87469),(419.07206,423.55748,69.87588),(419.06757,423.56648,70.37587),(418.27945,426.35459,69.76378),(418.27167,426.36934,70.26351),(417.66681,426.01581,69.76418),(417.65903,426.03056,70.26391),(416.94773,428.84525,69.68678),(416.94272,428.85482,70.18667),(416.32576,428.52391,69.68664),(416.32075,428.53349,70.18654),(415.68733,431.37186,69.64167),(415.68459,431.37689,70.14164),(415.05653,431.06825,69.64122),(415.05379,431.07327,70.14119),(414.49984,433.93108,69.62222),(414.49829,433.93353,70.12221),(413.8607,433.64542,69.62163),(413.85915,433.64787,70.12162),(413.38477,436.52269,70.10932),(413.38814,436.51601,69.60935),(412.74118,436.24854,69.60867),(412.73781,436.25522,70.10864),(412.34772,439.13705,69.53806),(412.34401,439.14462,70.03801),(411.69529,438.88338,69.537),(411.69157,438.89094,70.03695),(404.73028,459.14784,69.36003),(404.73225,459.14044,69.86011),(404.0774,458.89532,69.35896),(404.07938,458.88793,69.85904),(404.14311,460.63969,69.92255),(404.13935,460.65161,69.42266),(403.49129,460.38682,69.42108),(403.49505,460.3749,69.92097),(403.1819,462.90398,69.94979),(403.18203,462.90677,69.44979),(402.54215,462.62272,69.44798),(402.54202,462.61994,69.94799),(402.14686,465.13657,69.94707),(402.14868,465.13571,69.44707),(401.51842,464.83091,69.44529),(401.5166,464.83178,69.94528),(401.03947,467.33418,69.93434),(401.04372,467.32847,69.43437),(400.42376,467.00324,69.43271),(400.41951,467.00894,69.93268),(399.86589,469.4874,69.37792),(399.86091,469.49444,69.87785),(399.25687,469.1421,69.37678),(399.25189,469.14913,69.87671),(398.61472,471.6126,69.34995),(398.61244,471.61505,69.84995),(398.0173,471.24761,69.34907),(398.01502,471.25006,69.84906),(397.29538,473.69378,69.84554),(397.29636,473.69338,69.34555),(396.71117,473.30908,69.34471),(396.7102,473.30947,69.8447),(395.91115,475.72839,69.84142),(395.91534,475.72326,69.34143),(395.34302,475.32005,69.34063),(395.33883,475.32518,69.84062),(394.46819,477.70777,69.28059),(394.46121,477.71671,69.78046),(393.90934,477.28608,69.28036),(393.90236,477.29503,69.78023),(392.95064,479.65212,69.72988),(392.95698,479.644,69.22999),(392.40516,479.21331,69.22999),(392.39882,479.22143,69.72988)),$);
#297= IFCTRIANGULATEDFACESET(#296,$,$,((1,2,3),(3,2,4),(5,1,6),(6,1,3),(5,6,7),(7,6,8),(7,8,2),(2,8,4),(9,2,10),(10,2,1),(11,10,5),(5,10,1),(12,11,7),(7,11,5),(12,7,9),(9,7,2),(13,9,14),(14,9,10),(15,14,11),(11,14,10),(16,15,12),(12,15,11),(16,12,13),(13,12,9),(17,13,18),(18,13,14),(19,18,15),(15,18,14),(20,19,16),(16,19,15),(20,16,17),(17,16,13),(21,17,22),(22,17,18),(23,22,19),(19,22,18),(24,23,20),(20,23,19),(24,20,21),(21,20,17),(25,26,22),(22,26,21),(27,25,23),(23,25,22),(27,23,28),(28,23,24),(28,24,26),(26,24,21),(29,30,25),(25,30,26),(31,29,27),(27,29,25),(31,27,32),(32,27,28),(32,28,30),(30,28,26),(33,34,29),(29,34,30),(35,33,31),(31,33,29),(35,31,36),(36,31,32),(36,32,34),(34,32,30),(37,38,33),(33,38,34),(39,37,35),(35,37,33),(39,35,40),(40,35,36),(40,36,38),(38,36,34),(41,38,42),(42,38,37),(43,42,39),(39,42,37),(44,43,40),(40,43,39),(44,40,41),(41,40,38),(45,46,42),(42,46,41),(47,45,43),(43,45,42),(47,43,48),(48,43,44),(48,44,46),(46,44,41),(49,50,45),(45,50,46),(49,45,51),(51,45,47),(51,47,52),(52,47,48),(50,52,46),(46,52,48),(53,50,54),(54,50,49),(54,49,55),(55,49,51),(56,55,52),(52,55,51),(53,56,50),(50,56,52),(57,53,58),(58,53,54),(58,54,59),(59,54,55),(60,59,56),(56,59,55),(57,60,53),(53,60,56),(61,57,62),(62,57,58),(62,58,63),(63,58,59),(64,63,60),(60,63,59),(61,64,57),(57,64,60),(65,61,66),(66,61,62),(66,62,67),(67,62,63),(68,67,64),(64,67,63),(65,68,61),(61,68,64),(69,70,66),(66,70,65),(69,66,71),(71,66,67),(71,67,72),(72,67,68),(70,72,65),(65,72,68),(73,74,69),(69,74,70),(73,69,75),(75,69,71),(75,71,76),(76,71,72),(74,76,70),(70,76,72),(77,74,78),(78,74,73),(78,73,79),(79,73,75),(80,79,76),(76,79,75),(77,80,74),(74,80,76),(81,77,82),(82,77,78),(82,78,83),(83,78,79),(84,83,80),(80,83,79),(81,84,77),(77,84,80),(85,86,82),(82,86,81),(85,82,87),(87,82,83),(87,83,88),(88,83,84),(86,88,81),(81,88,84),(89,86,90),(90,86,85),(91,90,87),(87,90,85),(92,91,88),(88,91,87),(92,88,89),(89,88,86),(4,8,3),(3,8,6),(92,89,91),(91,89,90)),$);
#298= IFCSHAPEREPRESENTATION(#121,'Body','Tessellation',(#297));
#299= IFCPRODUCTDEFINITIONSHAPE($,$,(#298));
#300= IFCLOCALPLACEMENT(#5,#22);
#301= IFCBUILTELEMENT('3fKhc5$kz1TBvPVAOoOnyE',$,'HRB_VK',$,$,#300,#299,'27803');
#302= IFCSTYLEDITEM(#297,(#229),'HRB_VK');
#303= IFCPROPERTYSET('11MmIwKTP6wfjVLTiPs_DR',$,'Properties',$,(#73,#74,#75,#76,#77,#78,#79,#80,#81,#82,#83,#84,#85,#86,#87,#88,#89,#90,#91,#93,#94,#136,#138,#139,#140,#235,#305,#306));
#304= IFCRELDEFINESBYPROPERTIES('2wpnv4ABn0EhBtZzqiw620',$,$,$,(#301),#303);
#305= IFCPROPERTYSINGLEVALUE('Area',$,IFCREAL(181.756329307802),$);
#306= IFCPROPERTYSINGLEVALUE('Bounds',$,IFCLABEL('((2701841.39882284,1165938.46468456,2012.22998782107),(2701876.22570523,1166005.65211614,2013.37777519828))'),$);
#307= IFCPROPERTYSET('2LYYEyKRX92OZPckDcS9zS',$,'Misc',$,(#97,#99,#100,#144));
#308= IFCRELDEFINESBYPROPERTIES('3KLexcedf7NuK3FkA4Hu3_',$,$,$,(#301),#307);
#309= IFCPROPERTYSET('3IyfCFK5v26esTlQLZZXRL',$,'3D Visualization',$,(#103,#104,#105));
#310= IFCRELDEFINESBYPROPERTIES('0XM2bHAp94ng4G8WvT2V8I',$,$,$,(#301),#309);
#311= IFCPROPERTYSET('3KSeN0TQX7AO4MY15yzzhI',$,'General',$,(#108,#110,#111,#112,#113,#243));
#312= IFCRELDEFINESBYPROPERTIES('3ToSvYJZf7Qvh8wstpOk3E',$,$,$,(#301),#311);
#313= IFCPROPERTYSET('3IMG_yRJjAq8Cm73HE79R5',$,'Geometry',$,(#116));
#314= IFCRELDEFINESBYPROPERTIES('2R41xmUMD3N9$9mOm9Bxv3',$,$,$,(#301),#313);
#315= IFCPROPERTYSET('1cxoOCAgbFug6DeWFftsWw',$,'01_Info',$,(#317,#318));
#316= IFCRELDEFINESBYPROPERTIES('3fJQ29H3nBUwFxl4WJZWpw',$,$,$,(#301),#315);
#317= IFCPROPERTYSINGLEVALUE('Name',$,IFCLABEL('HRB C3-C4'),$);
#318= IFCPROPERTYSINGLEVALUE('Typ',$,IFCLABEL('10 x KSR DN120/132 + 1 x KSR DN60/72'),$);
#319= IFCCARTESIANPOINTLIST3D(((480.88228,360.4732,76.32641),(480.86865,360.49848,76.62515),(481.04106,360.27918,76.35728),(481.02207,360.31102,76.65499),(480.49171,360.1611,76.33486),(480.65349,359.96342,76.36633),(480.47808,360.18638,76.63361),(480.6345,359.99526,76.66403),(479.63046,362.07507,76.49269),(479.64079,362.054,76.19359),(479.24107,361.75355,76.20107),(479.23074,361.77462,76.50017),(478.46996,363.67466,76.01763),(478.46509,363.68818,76.31755),(478.05867,363.39022,76.02337),(478.05381,363.40374,76.32329),(477.36518,365.34658,76.30816),(477.36459,365.34129,76.00819),(476.94236,365.07335,76.01384),(476.94295,365.07864,76.3138),(476.33124,367.04966,76.26246),(476.33283,367.04077,75.9626),(475.90279,366.78571,75.9679),(475.90119,366.7946,76.26777),(471.62466,375.15755,75.64809),(471.62422,375.16445,75.94804),(471.19244,374.90624,75.65325),(471.192,374.91314,75.95319),(471.54678,375.2972,75.94684),(471.5479,375.28913,75.64691),(471.11955,375.03119,75.65212),(471.11842,375.03926,75.95206),(470.72594,376.61062,75.58123),(470.72335,376.62103,75.88105),(470.3081,376.33575,75.58729),(470.30552,376.34617,75.88711),(469.8311,377.90289,75.84155),(469.84021,377.88309,75.54202),(469.43695,377.58729,75.54873),(469.42784,377.60709,75.84826),(468.88725,379.11167,75.35929),(468.87388,379.13696,75.658),(468.4996,378.79575,75.36898),(468.48622,378.82105,75.66769),(467.86023,380.30324,75.24872),(467.85404,380.32021,75.5482),(467.48959,379.96758,75.26024),(467.4834,379.98455,75.55973),(466.77454,381.44917,75.48359),(466.77855,381.43448,75.18398),(466.42581,381.08011,75.19658),(466.4218,381.09479,75.49619),(465.63833,382.52078,75.41063),(465.6463,382.50237,75.11127),(465.31213,382.13048,75.12506),(465.30416,382.14889,75.42442),(464.45783,383.5126,74.99436),(464.44829,383.53235,75.29356),(464.14319,383.12411,75.01007),(464.13365,383.14386,75.30928),(463.20759,384.48116,75.2037),(463.21748,384.46115,74.90452),(462.92325,384.05705,74.92171),(462.91337,384.07706,75.2209),(461.91981,385.3645,75.08745),(461.9371,385.33941,74.78894),(461.6636,384.92109,74.808),(461.64631,384.94619,75.10651),(460.58835,386.18007,74.90901),(460.61618,386.14852,74.61191),(460.3637,385.71733,74.63379),(460.33587,385.74888,74.93089),(459.2168,386.92569,74.66827),(459.25687,386.88749,74.37332),(459.02557,386.44478,74.39892),(458.9855,386.48299,74.69387),(457.80919,387.59924,74.34733),(457.86738,387.55237,74.05651),(457.65664,387.09982,74.08679),(457.59845,387.1467,74.37762),(456.43669,388.14827,73.60404),(456.36863,388.19926,73.89173),(456.2471,387.68692,73.64101),(456.17905,387.7379,73.92871),(454.95465,388.67757,73.16817),(454.89761,388.72461,73.45912),(454.78946,388.2075,73.21232),(454.73242,388.25455,73.50326),(453.44357,389.13077,72.85749),(453.4008,389.17353,73.15136),(453.30446,388.65287,72.907),(453.2617,388.69564,73.20087),(451.88917,389.54304,72.90194),(451.93649,389.49915,72.60882),(451.81113,389.0179,72.6606),(451.76381,389.06178,72.95373),(451.32565,389.64211,72.46842),(451.27211,389.68744,72.76011),(451.19038,389.16317,72.51792),(451.13684,389.20851,72.80961),(450.11678,389.98643,72.20513),(450.06817,390.03037,72.49789),(449.95665,389.51458,72.24921),(449.90803,389.55851,72.54198),(448.93294,390.40618,71.9564),(448.89013,390.44805,72.25038),(448.7448,389.94426,71.9946),(448.70199,389.98613,72.28859),(447.77779,390.9,71.73432),(447.74095,390.93932,72.02946),(447.56211,390.44985,71.76723),(447.52527,390.48917,72.06237),(446.65487,391.46649,71.53078),(446.62519,391.5022,71.82721),(446.41232,391.0299,71.55882),(446.38264,391.06561,71.85525),(445.54771,392.13421,71.66578),(445.57964,392.09718,71.36968),(445.31019,391.67637,71.39369),(445.27825,391.7134,71.68978),(444.54848,392.79317,71.13746),(444.51232,392.83306,71.4326),(444.2532,392.38979,71.15565),(444.21704,392.42968,71.4508),(443.55577,393.55882,70.92421),(443.52291,393.59616,71.22006),(443.23632,393.17408,70.93721),(443.20347,393.21141,71.23306),(442.61662,394.38289,70.72227),(442.5867,394.41765,71.01875),(442.26828,394.0235,70.72905),(442.23835,394.05826,71.02554),(440.88692,396.21849,70.35373),(440.86609,396.24361,70.65215),(440.51206,395.88725,70.35486),(440.49123,395.91236,70.65328),(437.85517,399.87354,70.00871),(437.47033,399.55432,70.00871),(437.84462,399.88626,70.3083),(437.45978,399.56704,70.3083),(434.82213,403.53014,69.82952),(434.43729,403.21092,69.82952),(434.81816,403.53493,70.1295),(434.43332,403.21571,70.1295),(431.36812,407.69425,69.80905),(430.98328,407.37504,69.80905),(431.36686,407.69577,70.10904),(430.98202,407.37656,70.10904),(429.2261,410.27665,69.77761),(429.2243,410.27881,70.0776),(428.84126,409.95743,69.77761),(428.83946,409.9596,70.0776)),$);
#320= IFCTRIANGULATEDFACESET(#319,$,$,((1,2,3),(3,2,4),(1,3,5),(5,3,6),(5,6,7),(7,6,8),(2,7,4),(4,7,8),(9,2,10),(10,2,1),(11,10,5),(5,10,1),(12,11,7),(7,11,5),(12,7,9),(9,7,2),(13,14,10),(10,14,9),(15,13,11),(11,13,10),(15,11,16),(16,11,12),(16,12,14),(14,12,9),(17,14,18),(18,14,13),(19,18,15),(15,18,13),(20,19,16),(16,19,15),(20,16,17),(17,16,14),(21,17,22),(22,17,18),(23,22,19),(19,22,18),(24,23,20),(20,23,19),(24,20,21),(21,20,17),(25,26,22),(22,26,21),(25,22,27),(27,22,23),(27,23,28),(28,23,24),(26,28,21),(21,28,24),(29,26,30),(30,26,25),(31,30,27),(27,30,25),(32,31,28),(28,31,27),(32,28,29),(29,28,26),(33,34,30),(30,34,29),(33,30,35),(35,30,31),(35,31,36),(36,31,32),(34,36,29),(29,36,32),(37,34,38),(38,34,33),(38,33,39),(39,33,35),(40,39,36),(36,39,35),(37,40,34),(34,40,36),(41,42,38),(38,42,37),(41,38,43),(43,38,39),(43,39,44),(44,39,40),(42,44,37),(37,44,40),(45,46,41),(41,46,42),(45,41,47),(47,41,43),(47,43,48),(48,43,44),(46,48,42),(42,48,44),(49,46,50),(50,46,45),(50,45,51),(51,45,47),(52,51,48),(48,51,47),(49,52,46),(46,52,48),(53,49,54),(54,49,50),(54,50,55),(55,50,51),(56,55,52),(52,55,51),(53,56,49),(49,56,52),(57,58,54),(54,58,53),(57,54,59),(59,54,55),(59,55,60),(60,55,56),(58,60,53),(53,60,56),(61,58,62),(62,58,57),(62,57,63),(63,57,59),(64,63,60),(60,63,59),(61,64,58),(58,64,60),(65,61,66),(66,61,62),(66,62,67),(67,62,63),(68,67,64),(64,67,63),(65,68,61),(61,68,64),(69,65,70),(70,65,66),(70,66,71),(71,66,67),(72,71,68),(68,71,67),(69,72,65),(65,72,68),(73,69,74),(74,69,70),(74,70,75),(75,70,71),(76,75,72),(72,75,71),(73,76,69),(69,76,72),(77,73,78),(78,73,74),(78,74,79),(79,74,75),(80,79,76),(76,79,75),(77,80,73),(73,80,76),(81,82,78),(78,82,77),(81,78,83),(83,78,79),(83,79,84),(84,79,80),(82,84,77),(77,84,80),(85,86,81),(81,86,82),(85,81,87),(87,81,83),(87,83,88),(88,83,84),(86,88,82),(82,88,84),(89,90,85),(85,90,86),(89,85,91),(91,85,87),(91,87,92),(92,87,88),(90,92,86),(86,92,88),(93,90,94),(94,90,89),(94,89,95),(95,89,91),(96,95,92),(92,95,91),(93,96,90),(90,96,92),(97,98,94),(94,98,93),(99,97,95),(95,97,94),(99,95,100),(100,95,96),(100,96,98),(98,96,93),(101,102,97),(97,102,98),(103,101,99),(99,101,97),(103,99,104),(104,99,100),(104,100,102),(102,100,98),(105,106,101),(101,106,102),(107,105,103),(103,105,101),(107,103,108),(108,103,104),(108,104,106),(106,104,102),(109,110,105),(105,110,106),(111,109,107),(107,109,105),(111,107,112),(112,107,108),(112,108,110),(110,108,106),(113,114,109),(109,114,110),(115,113,111),(111,113,109),(115,111,116),(116,111,112),(116,112,114),(114,112,110),(117,114,118),(118,114,113),(119,118,115),(115,118,113),(120,119,116),(116,119,115),(120,116,117),(117,116,114),(121,122,118),(118,122,117),(123,121,119),(119,121,118),(123,119,124),(124,119,120),(124,120,122),(122,120,117),(125,126,121),(121,126,122),(127,125,123),(123,125,121),(127,123,128),(128,123,124),(128,124,126),(126,124,122),(129,130,125),(125,130,126),(131,129,127),(127,129,125),(131,127,132),(132,127,128),(132,128,130),(130,128,126),(133,134,129),(129,134,130),(135,133,131),(131,133,129),(135,131,136),(136,131,132),(136,132,134),(134,132,130),(137,133,138),(138,133,135),(139,140,134),(134,140,136),(141,137,142),(142,137,138),(143,144,139),(139,144,140),(145,141,146),(146,141,142),(147,148,143),(143,148,144),(149,150,145),(145,150,147),(145,147,143),(139,137,143),(143,137,141),(143,141,145),(134,133,139),(139,133,137),(151,149,146),(146,149,145),(151,146,152),(152,146,148),(148,146,144),(144,146,142),(144,142,138),(144,138,140),(140,138,135),(140,135,136),(152,148,150),(150,148,147),(8,6,4),(4,6,3),(152,150,151),(151,150,149)),$);
#321= IFCSHAPEREPRESENTATION(#121,'Body','Tessellation',(#320));
#322= IFCPRODUCTDEFINITIONSHAPE($,$,(#321));
#323= IFCLOCALPLACEMENT(#5,#22);
#324= IFCBUILTELEMENT('15P_fIakXDXgiyy$ElG2wl',$,'HRB_VK',$,$,#323,#322,'27808');
#325= IFCSTYLEDITEM(#320,(#229),'HRB_VK');
#326= IFCPROPERTYSET('2gFkrhTcb5Zez$7qQKVxdT',$,'Properties',$,(#73,#74,#75,#76,#77,#78,#79,#80,#81,#82,#83,#84,#85,#86,#87,#88,#89,#90,#91,#93,#94,#136,#138,#139,#140,#235,#328,#329));
#327= IFCRELDEFINESBYPROPERTIES('1J27b2nrD6DR26xffD$bYr',$,$,$,(#324),#326);
#328= IFCPROPERTYSINGLEVALUE('Area',$,IFCREAL(119.686809320889),$);
#329= IFCPROPERTYSINGLEVALUE('Bounds',$,IFCLABEL('((2701877.8394642,1165885.96342466,2012.77761307405),(2701930.04106376,1165936.27881186,2019.66402598567))'),$);
#330= IFCPROPERTYSET('3FeBXsmOf6VfnnD05stgKy',$,'Misc',$,(#97,#99,#100,#144));
#331= IFCRELDEFINESBYPROPERTIES('1CJhSXqoz7eBf$1dwONO24',$,$,$,(#324),#330);
#332= IFCPROPERTYSET('0Y6LMWArH2wOP8V5TUa2jJ',$,'3D Visualization',$,(#103,#104,#105));
#333= IFCRELDEFINESBYPROPERTIES('0WjgzpP$n3lRJmSbOMwSQr',$,$,$,(#324),#332);
#334= IFCPROPERTYSET('3ywGyt46vCyumm6qyDv0eD',$,'General',$,(#108,#110,#111,#112,#113,#243));
#335= IFCRELDEFINESBYPROPERTIES('328xWa_F56KvJ7suHvSPec',$,$,$,(#324),#334);
#336= IFCPROPERTYSET('1Z8Kvjdx5AUwqoj46YB$TZ',$,'Geometry',$,(#116));
#337= IFCRELDEFINESBYPROPERTIES('0_FPa8IcPCcurLszRsjJ0U',$,$,$,(#324),#336);
#338= IFCPROPERTYSET('2TMqTtbt9CtP$Rdws74lxX',$,'01_Info',$,(#340,#341));
#339= IFCRELDEFINESBYPROPERTIES('2OZ6BOo2T96hkMXxMNL0Xw',$,$,$,(#324),#338);
#340= IFCPROPERTYSINGLEVALUE('Name',$,IFCLABEL('HRB C4-C5'),$);
#341= IFCPROPERTYSINGLEVALUE('Typ',$,IFCLABEL('6 x KSR DN120/132 + 1 x KSR DN60/72'),$);
#342= IFCORGANIZATION($,'Unknown',$,$,$);
ENDSEC;

END-ISO-10303-21;
